<svg width="1080" height="1080" viewBox="0 0 1080 1080" fill="none" xmlns="http://www.w3.org/2000/svg">
<path fill-rule="evenodd" clip-rule="evenodd" d="M542.5 845.5C676.705 845.5 785.5 736.705 785.5 602.5C785.5 468.295 676.705 359.5 542.5 359.5C408.295 359.5 299.5 468.295 299.5 602.5C299.5 736.705 408.295 845.5 542.5 845.5ZM542.5 886C699.073 886 826 759.073 826 602.5C826 445.927 699.073 319 542.5 319C385.927 319 259 445.927 259 602.5C259 759.073 385.927 886 542.5 886Z" fill="#1C1B1B"/>
<path d="M472.705 748.723V491.894H609.262V444.333H651.758V532.083H515.2V748.723H472.705Z" fill="#1C1B1B"/>
<path fill-rule="evenodd" clip-rule="evenodd" d="M312.583 447.476C312.221 449.712 312.233 451.91 312.684 454.04C313.179 456.4 310.581 459.36 307.985 462.316C306.932 463.516 305.879 464.716 305.033 465.875C306.866 471.207 310.36 476.764 312.978 480.818C314.327 482.901 315.53 485.154 316.413 487.506C318.528 493.042 317.22 497.588 311.399 499.678C298.088 504.453 284.79 504.792 271.737 498.49C267.223 496.289 264.654 492.687 262.718 488.092C255.901 471.606 248.954 455.174 242.007 438.742C239.402 432.58 236.797 426.418 234.199 420.254C228.662 407.117 230.302 397.855 241.65 389.368C247.483 384.985 246.983 381.564 244.886 375.73C234.947 348.106 227.861 319.861 228.246 290.174C228.894 244.179 248.544 208.371 287.644 184.846C327.818 160.688 371.222 142.649 416.078 129.772C473.881 113.146 521.837 131.864 558.801 181.146C571.035 197.452 581.461 214.884 589.807 233.482C591.796 237.946 593.945 238.747 598.5 238.207C615.455 236.146 621.693 239.944 628.217 255.425C630.817 261.594 633.387 267.775 635.956 273.955C642.378 289.403 648.798 304.847 655.683 320.076C659.342 328.158 658.526 335.075 654.814 342.341C649.822 352.071 642.168 359.182 632.601 364.159C624.286 368.498 620.716 366.989 617.248 358.246C614.27 350.749 608.27 339.006 606.488 336.67C606.109 336.159 605.726 335.56 605.328 334.935C604.344 333.395 603.262 331.701 601.896 330.802C601.617 330.82 601.337 330.838 601.057 330.856C598.001 331.055 594.915 331.256 592.618 330.546C560.944 331.857 525.276 336.449 488.02 346.926C469.061 354.924 454.242 361.152 437.999 367.978C424.835 373.511 410.735 379.436 392.737 387.016C365.515 402.77 338.507 422.61 312.583 447.476Z" fill="#1C1B1B"/>
<path d="M324.583 347.355L300.229 289.56L338.704 273.347L342.322 281.934L314.085 293.833L320.591 309.272L345.773 298.661L349.392 307.247L324.209 317.859L334.821 343.041L324.583 347.355Z" fill="#27FB6B"/>
<path d="M357.152 265.573L368.215 260.911L415.357 309.104L404.459 313.696L394.125 302.786L369.026 313.363L369.534 328.413L358.636 333.006L357.152 265.573ZM368.627 303.419L387.204 295.591L367.554 274.801L368.627 303.419Z" fill="#27FB6B"/>
<path d="M458.867 268.699C459.846 275.481 458.809 281.557 455.756 286.927C452.759 292.274 448.068 296.292 441.683 298.983C433.592 302.392 425.827 302.423 418.389 299.076C410.95 295.729 405.387 289.679 401.699 280.928C397.988 272.121 397.532 263.887 400.332 256.225C403.163 248.486 408.624 242.911 416.716 239.501C423.046 236.834 429.17 236.295 435.09 237.884C441.065 239.45 446.138 242.951 450.309 248.388L440.784 253.471C438.291 250.633 435.263 248.83 431.699 248.063C428.19 247.273 424.619 247.644 420.986 249.174C415.922 251.308 412.599 254.88 411.015 259.89C409.432 264.9 409.893 270.377 412.398 276.322C414.903 282.267 418.501 286.422 423.192 288.788C427.884 291.154 432.761 291.269 437.825 289.136C441.458 287.605 444.217 285.308 446.103 282.245C448.043 279.159 448.868 275.732 448.577 271.966L458.867 268.699Z" fill="#27FB6B"/>
<path d="M486.539 279.109L465.803 229.9L447.226 237.729L443.607 229.142L490.917 209.206L494.535 217.793L476.041 225.586L496.776 274.795L486.539 279.109Z" fill="#27FB6B"/>
</svg>
